<svg xmlns="http://www.w3.org/2000/svg" version="1.1" style="width:0; height:0; position:absolute; overflow:hidden;">
    <defs>
        <!-- #add: Add icon -->
        <symbol viewBox="0 0 24 24" id="add" fill-rule="evenodd" clip-rule="evenodd">
            <path d="M11 11v-11h1v11h11v1h-11v11h-1v-11h-11v-1h11z"/>
        </symbol>

        <!-- #close: Close icon -->
        <symbol viewBox="0 0 24 24" id="close" fill-rule="evenodd" clip-rule="evenodd">
            <path d="M12 11.293l10.293-10.293.707.707-10.293 10.293 10.293 10.293-.707.707-10.293-10.293-10.293 10.293-.707-.707 10.293-10.293-10.293-10.293.707-.707 10.293 10.293z"/>
        </symbol>

        <!-- #back: Back icon -->
        <symbol viewBox="0 0 24 24" id="back" fill-rule="evenodd" clip-rule="evenodd">
            <path d="M20 .755l-14.374 11.245 14.374 11.219-.619.781-15.381-12 15.391-12 .609.755z"/>
        </symbol>

        <!-- #forward: Forward icon -->
        <symbol viewBox="0 0 24 24" id="forward" fill-rule="evenodd" clip-rule="evenodd">
            <path d="M4 .755l14.374 11.245-14.374 11.219.619.781 15.381-12-15.391-12-.609.755z"/>
        </symbol>

        <!-- #edit: Edit icon -->
        <symbol viewBox="0 0 24 24" id="edit">
            <path d="M18.308 0l-16.87 16.873-1.436 7.127 7.125-1.437 16.872-16.875-5.691-5.688zm-15.751 21.444l.723-3.585 12.239-12.241 2.861 2.862-12.239 12.241-3.584.723zm17.237-14.378l-2.861-2.862 1.377-1.377 2.861 2.861-1.377 1.378z"/>
        </symbol>

        <!-- #search: Search icon -->
        <symbol viewBox="0 0 24 24" id="search" fill-rule="evenodd" clip-rule="evenodd">
            <path d="M15.853 16.56c-1.683 1.517-3.911 2.44-6.353 2.44-5.243 0-9.5-4.257-9.5-9.5s4.257-9.5 9.5-9.5 9.5 4.257 9.5 9.5c0 2.442-.923 4.67-2.44 6.353l7.44 7.44-.707.707-7.44-7.44zm-6.353-15.56c4.691 0 8.5 3.809 8.5 8.5s-3.809 8.5-8.5 8.5-8.5-3.809-8.5-8.5 3.809-8.5 8.5-8.5z"/>
        </symbol>

        <!-- #trophy: Trophy Icon -->
        <symbol id="trophy" viewBox="0 0 24 24">
            <path d="M24 3c-.372 4.105-2.808 8.091-6.873 9.438.297-.552.596-1.145.882-1.783 2.915-1.521 4.037-4.25 4.464-6.251h-2.688c.059-.45.103-.922.139-1.405h4.076zm-24 0c.372 4.105 2.808 8.091 6.873 9.438-.297-.552-.596-1.145-.882-1.783-2.915-1.521-4.037-4.25-4.464-6.251h2.688c-.058-.449-.102-.922-.138-1.404h-4.077zm16.921 0c-.368 4.506-1.953 7.23-3.372 9.669-.577.993-1.136 1.953-1.543 2.95-.408-.998-.969-1.959-1.548-2.953-1.422-2.437-3.011-5.161-3.379-9.666h9.842zm2.079-2h-14c0 9.803 5.105 13.053 5.604 17h2.805c.497-3.947 5.591-7.197 5.591-17zm-7 11.547c-1.125-2.563-1.849-5.599-1.857-8.547h-1.383c.374 3.118 1.857 7.023 3.24 8.547zm1.438 6.453h-2.866c-.202 1.187-.63 2.619-2.571 2.619v1.381h8v-1.381c-1.999 0-2.371-1.432-2.563-2.619z"/>
        </symbol>
    </defs>
</svg>